<svg xmlns='http://www.w3.org/2000/svg'  viewbox='0 0 292 292' stroke-linecap='round' stroke-linejoin='round' fill-rule='evenodd'>
    <path d='M145.66 0C65.219 0 0 65.219 0 145.66c0 80.45 65.219 145.66 145.66 145.66s145.66-65.21 145.66-145.66C291.319 65.219 226.1 0 145.66 0zm40.802 256.625l-1.83-31.235c-.364-4.388-.838-15.549-11.434-22.677 42.068-3.523 62.087-26.774 63.526-57.499 1.202-17.497-5.754-32.883-18.107-45.3.628-13.282-.401-29.023-1.256-35.941-9.486-2.731-31.608 8.949-37.79 13.947-13.037-5.062-44.945-6.837-64.336 0-13.747-9.668-29.396-15.64-37.926-13.974-7.875 17.452-2.813 33.948-1.275 35.914-10.142 9.268-24.289 20.675-20.447 44.572 6.163 35.04 30.816 53.94 70.508 58.564-8.466 1.73-9.896 8.048-10.606 10.788-26.656 10.997-34.275-6.791-37.644-11.425-11.188-13.847-21.23-9.832-21.849-9.614-.601.218-1.056 1.092-.992 1.511.564 2.986 6.655 6.018 6.955 6.263 8.257 6.154 11.316 17.27 13.2 20.438 11.844 19.473 39.374 11.398 39.638 11.562.018 1.702-.191 16.032-.355 27.184C64.245 245.992 27.311 200.2 27.311 145.66c0-65.365 52.984-118.348 118.348-118.348S264.008 80.295 264.008 145.66c0 51.008-32.318 94.332-77.546 110.965z' fill-rule='nonzero' />
</svg>



<svg xmlns="http://www.w3.org/2000/svg" viewBox="0 0 512 512">
	<path style="fill:#000000" d="M256,49.471c67.266,0,75.233.257,101.8,1.469,24.562,1.121,37.9,5.224,46.778,8.674a78.052,78.052,0,0,1,28.966,18.845,78.052,78.052,0,0,1,18.845,28.966c3.45,8.877,7.554,22.216,8.674,46.778,1.212,26.565,1.469,34.532,1.469,101.8s-0.257,75.233-1.469,101.8c-1.121,24.562-5.225,37.9-8.674,46.778a83.427,83.427,0,0,1-47.811,47.811c-8.877,3.45-22.216,7.554-46.778,8.674-26.56,1.212-34.527,1.469-101.8,1.469s-75.237-.257-101.8-1.469c-24.562-1.121-37.9-5.225-46.778-8.674a78.051,78.051,0,0,1-28.966-18.845,78.053,78.053,0,0,1-18.845-28.966c-3.45-8.877-7.554-22.216-8.674-46.778-1.212-26.564-1.469-34.532-1.469-101.8s0.257-75.233,1.469-101.8c1.121-24.562,5.224-37.9,8.674-46.778A78.052,78.052,0,0,1,78.458,78.458a78.053,78.053,0,0,1,28.966-18.845c8.877-3.45,22.216-7.554,46.778-8.674,26.565-1.212,34.532-1.469,101.8-1.469m0-45.391c-68.418,0-77,.29-103.866,1.516-26.815,1.224-45.127,5.482-61.151,11.71a123.488,123.488,0,0,0-44.62,29.057A123.488,123.488,0,0,0,17.3,90.982C11.077,107.007,6.819,125.319,5.6,152.134,4.369,179,4.079,187.582,4.079,256S4.369,333,5.6,359.866c1.224,26.815,5.482,45.127,11.71,61.151a123.489,123.489,0,0,0,29.057,44.62,123.486,123.486,0,0,0,44.62,29.057c16.025,6.228,34.337,10.486,61.151,11.71,26.87,1.226,35.449,1.516,103.866,1.516s77-.29,103.866-1.516c26.815-1.224,45.127-5.482,61.151-11.71a128.817,128.817,0,0,0,73.677-73.677c6.228-16.025,10.486-34.337,11.71-61.151,1.226-26.87,1.516-35.449,1.516-103.866s-0.29-77-1.516-103.866c-1.224-26.815-5.482-45.127-11.71-61.151a123.486,123.486,0,0,0-29.057-44.62A123.487,123.487,0,0,0,421.018,17.3C404.993,11.077,386.681,6.819,359.866,5.6,333,4.369,324.418,4.079,256,4.079h0Z"/>
	<path style="fill:#000000" d="M256,126.635A129.365,129.365,0,1,0,385.365,256,129.365,129.365,0,0,0,256,126.635Zm0,213.338A83.973,83.973,0,1,1,339.974,256,83.974,83.974,0,0,1,256,339.973Z"/>
	<circle style="fill:#000000" cx="390.476" cy="121.524" r="30.23"/>
</svg>

<svg xmlns="http://www.w3.org/2000/svg" xmlns:xlink="http://www.w3.org/1999/xlink" version="1.1" id="Layer_1" x="0px" y="0px" viewBox="73 0 267 266.9" enable-background="new 73 0 267 266.9" xml:space="preserve">
<path id="Blue_1_" fill="#157DC3" d="M321.1,262.3c7.9,0,14.2-6.4,14.2-14.2V18.8c0-7.9-6.4-14.2-14.2-14.2H91.8  C84,4.6,77.6,11,77.6,18.8v229.3c0,7.9,6.4,14.2,14.2,14.2H321.1z"/>
<path id="f" fill="#FFFFFF" d="M255.4,262.3v-99.8h33.5l5-38.9h-38.5V98.8c0-11.3,3.1-18.9,19.3-18.9l20.6,0V45  c-3.6-0.5-15.8-1.5-30-1.5c-29.7,0-50,18.1-50,51.4v28.7h-33.6v38.9h33.6v99.8H255.4z"/>
</svg>


<svg xmlns="http://www.w3.org/2000/svg" xmlns:xlink="http://www.w3.org/1999/xlink" version="1.1" x="0px" y="0px" viewBox="0 0 24 24" style="enable-background:new 0 0 24 24;" xml:space="preserve">
<g id="facebook">
	<path d="M20.007,3H3.993C3.445,3,3,3.445,3,3.993v16.013C3,20.555,3.445,21,3.993,21h8.621v-6.971h-2.346v-2.717h2.346V9.31   c0-2.325,1.42-3.591,3.494-3.591c0.993,0,1.847,0.074,2.096,0.107v2.43l-1.438,0.001c-1.128,0-1.346,0.536-1.346,1.323v1.734h2.69   l-0.35,2.717h-2.34V21h4.587C20.555,21,21,20.555,21,20.007V3.993C21,3.445,20.555,3,20.007,3z"/>
</g>
<g id="Layer_1">
</g>
</svg>